<svg aria-hidden="true" style="position:absolute;width:0;height:0;overflow:hidden" xmlns="http://www.w3.org/2000/svg"><defs><symbol id="icon-astronaut" viewBox="0 0 32 32"><path d="M32 4.5c0-.2-.3-.3-.5-.3l-1.9-.3-.8-1.7c-.2-.4-.8-.4-1 0L27 3.9l-2 .3a.5.5 0 0 0-.2.9L26 6.4l-.3 2c0 .1 0 .3.2.4.2.2.4.2.6 0l1.7-.8 1.7.9a.5.5 0 0 0 .8-.6l-.3-1.9 1.3-1.3c.2-.2.2-.4.2-.6zM29.5 6c-.1 0-.2.2-.1.4l.1 1.1-1-.5a.5.5 0 0 0-.4 0l-1 .5.1-1-.1-.5-.8-.8 1.1-.2c.2 0 .3-.1.4-.3l.5-1 .5 1c0 .2.2.3.4.3l1.1.2-.8.8zM26.1 20.5h-1v1h1v-1zM26.1 22.7h-1v1h1v-1zM27.2 21.6h-1v1h1v-1zM25 21.6h-1v1h1v-1zM22.4 26.4h-1v1h1v-1zM22.4 28.5h-1v1h1v-1zM23.5 27.5h-1.1v1h1v-1zM21.3 27.5h-1v1h1v-1zM16 24.3h-1v1h1v-1zM16 26.4h-1v1h1v-1zM17 25.3h-1v1h1v-1zM15 25.3h-1.1v1h1v-1zM5.9 6.1H4.8v1h1v-1zM5.9 8.3H4.8v1h1v-1zM7 7.2H5.8v1h1v-1zM4.8 7.2h-1v1h1v-1z"/><path d="M24.7 14.2c-.3-.4-.7-.7-1.2-.7-.5-.1-1 0-1.3.3l-1.3 1-1.9 1.4-1.3-.6a7 7 0 0 0-2.9-13.2A7 7 0 0 0 9 13H6l-3.2 1.6-2 1a1.8 1.8 0 0 0 1 3.2c.3 0 .6 0 .8-.2L4 18l2.3-1.2h1.3l-5.4 5.4-1.3 1.3a1.7 1.7 0 0 0 0 2.4 1.7 1.7 0 0 0 2.3 0l1.3-1.3 1.8-1.3.9.9-1.8 1.7-1.3 1.4a1.7 1.7 0 0 0 0 2.3 1.7 1.7 0 0 0 2.3 0l3.5-3.4 1-1 5.2-5.7 3.5.5h.2l.1-.1 3.3-2.1 1.3-1.3c.7-.6.8-1.6.2-2.3zM2.1 17.8h-.5a.7.7 0 0 1-.2-1.2l1.3-.7.4 1.3-1 .6zm3.5-1.9-1.5.8-.5-1.2 2-1v1.4zm15.1-6.6c0 1-.2 1.8-.6 2.6l-4.2-2c0-.5-.3-1-.7-1.3l1.4-4.9c2.4.8 4.1 3 4.1 5.6zM9 9.3a5.9 5.9 0 0 1 6.7-5.8L14 8.3a1.9 1.9 0 1 0 0 3.7c.7 0 1.3-.4 1.6-1l3.9 1.8A5.9 5.9 0 0 1 8.9 9.3zm6 .8a.8.8 0 0 1-1.6 0 .8.8 0 0 1 1.6 0zm-12.4 15c-.3.3-.7.3-.9 0a.6.6 0 0 1 0-.8l1-1 .8.9-1 1zM5.7 29c-.3.2-.6.2-.9 0a.6.6 0 0 1 0-.9l1-1 .8 1-1 .9zm3.5-3.5-1.8 1.8-.9-.9 1.8-1.7.1-.2v-.5h-.1l-1.6-1.7h-.1l-.1-.1H6l-1.8 1.4-.9-1 2.4-2.3 4.4 4.3-1 1zm6.8-7a.6.6 0 0 0-.4 0v.1l-4.8 5.2-4.3-4.2 2.8-2.9a.5.5 0 0 0-.4-.9H6.7v-1.6H10a7 7 0 0 0 6.2 2l.1.1 2.5 1 .3 1.6-3-.4zm4 .2-.3-1.6 1.5-1 .9 1.2-2 1.4zm3.8-2.9-.9.8-.9-1.2.8-.6c.2-.2.4-.2.6-.2a.7.7 0 0 1 .4 1.2z"/><path d="m13.6 18.5-2.1-2a.5.5 0 0 0-.8 0l-2.1 2a.5.5 0 0 0 0 .8l2.1 2.1a.5.5 0 0 0 .8 0l2.1-2.1a.5.5 0 0 0 0-.8zm-2.5 1.8-1.4-1.4 1.4-1.4 1.4 1.4-1.4 1.4zM17.2 5l-.3 1.1s1.7.5 1.7 2.2h1.1c0-2-1.7-3-2.5-3.2zM19.7 9.3h-1v1h1v-1z"/></symbol><symbol id="icon-brand" viewBox="0 0 43 32"><path d="m3.2 26.4.3.6-.1.5-.3.4c-.3.2-.7.3-1.1.3H0V24h2c.3 0 .7 0 1 .2l.3.4c.1.1 0 .3 0 .4.1.3 0 .5-.1.7a1 1 0 0 1-.6.3c.2 0 .5.2.6.4zM1 25.7h.8l.6-.1.1-.2c.1 0 0-.1 0-.2V25l-.1-.2a.9.9 0 0 0-.6-.2H1v1.1zm1.5 1.7.1-.2v-.5l-.1-.2a1 1 0 0 0-.6-.2H.9v1.2h.9l.6-.1zM7.2 28.2l-1-1.7h-.5v1.7h-1V24h1.8c.5 0 1 0 1.3.3.2.3.4.6.4.9s-.1.6-.3.9l-.8.4 1.1 1.7h-1zM5.7 26h.8c.5 0 .8-.2.8-.7A.6.6 0 0 0 7 25a.9.9 0 0 0-.6-.2h-.8V26zM12.3 27.3h-1.9l-.3.9H9l1.7-4.2h1l1.8 4.2h-1l-.3-.9zm-.3-.6-.7-1.8-.6 1.8H12zM18.6 28.2h-1l-2-2.9v2.9h-.9V24h1l2 2.9v-3h.9v4.3zM23.9 27.2a2 2 0 0 1-.9.7 3 3 0 0 1-1.3.3h-1.6V24h1.6c.5 0 1 0 1.3.2.4.2.7.4.9.8a2.3 2.3 0 0 1 0 2.2zm-1.1-.1c.3-.3.4-.7.4-1s-.1-.8-.4-1c-.3-.3-.7-.4-1.2-.4H21v2.7h.6c.5 0 .9 0 1.2-.3zM12.8.5s12 4.1 11.7 10v10.1s-12-4.1-11.7-10V.6zM35 18.3c2.3-1.5 4.9-2.3 7.6-2.6v-3.1a15.3 15.3 0 0 0-7.6 5.7z"/><path d="M33.7 19.2c1.8-3.4 5-6 8.9-7.3V3S25.6 8.6 26 17.1v14.3l2-.8v-1.4c.4-4 2.4-7.5 5.7-10z"/><path d="m32 24.5.7-3a13.2 13.2 0 0 0-3.6 8.7l3.2-1.5c-.3-1.4-.3-2.8-.2-4.2zM32.8 24.6a13 13 0 0 0 .2 3.7c4.6-2.5 9.8-6.4 9.6-11.1v-.5c-3.3.4-6.4 1.7-8.8 3.8-.6 1.3-1 2.7-1 4z"/></symbol><symbol id="icon-clock" viewBox="0 0 31 32"><path d="M30.8 15.3a15.3 15.3 0 1 0-19.7 14.6h.3l.3-.4 3.9-12.3a2 2 0 1 0-.9-3.6l-5-5.1a.6.6 0 0 0-1 .9l5.1 5c-.4.9-.2 1.8.5 2.4l-3.6 11.7a14 14 0 1 1 10.5-.4l-.4-1.9a.6.6 0 0 0-1-.3L16 29.3a.6.6 0 0 0 .2 1.1L21 32a.6.6 0 0 0 .8-.8l-.4-1.8c5.7-2.4 9.4-8 9.3-14.1zm-15.3-.6a.6.6 0 1 1 0 1.2.6.6 0 0 1 0-1.2zm2.1 14.8 2.2-2 .6 3-2.8-1z"/></symbol><symbol id="icon-computer" viewBox="0 0 41 32"><path d="M2 32h33.2c1.2 0 2.1-1 2.1-2.1V27c0-1.1-1-2-2-2h-.7V7.7L38.4 4a2 2 0 1 0-1-1l-3 2.8V4.3c0-1.2-.9-2-2-2H4.8a2 2 0 0 0-2 2V25H2A2 2 0 0 0 0 27.1v2.8c0 1.1 1 2 2 2zM39.5 1.4a.7.7 0 1 1 0 1.4.7.7 0 0 1 0-1.4zM4 4.3c0-.4.4-.7.7-.7h27.7c.4 0 .7.3.7.7v2.9l-1.4 1.3V5.7c0-.4-.3-.7-.7-.7H6.2c-.4 0-.7.3-.7.7V23c0 .3.3.6.7.6h24.9c.4 0 .7-.3.7-.7V10.4l1.4-1.3v16h-29V4.2zm6.3 9a2 2 0 1 0 1.4 3.5l2.4 1.2c.3.2.6.1.8-.1l5.1-5.8 5 3.8c.3.2.7.2 1 0l4.3-4.2v10.6H6.9v-16h23.5v3.5l-4.9 4.6-5-3.8a.7.7 0 0 0-1 .1l-5.2 5.9-1.9-1v-.3c0-1.1-.9-2-2-2zm.7 2a.7.7 0 1 1-1.4 0 .7.7 0 0 1 1.4 0zm4.1 11.1h7v.7c0 .4-.4.7-.8.7H16a.7.7 0 0 1-.7-.7v-.7zm-13.8.7c0-.4.3-.7.7-.7h11.7v.7c0 1.1 1 2 2 2h5.6c1.2 0 2-.9 2-2v-.7h11.8c.4 0 .7.3.7.7v2.8c0 .3-.3.7-.7.7H2.1a.7.7 0 0 1-.7-.7V27z"/></symbol><symbol id="icon-facebook-1" viewBox="0 0 32 32"><path d="M21.3 5.3h3v-5C23.6.1 22 0 20 0c-4.2 0-7.1 2.6-7.1 7.5V12H8.2v5.7H13V32h5.7V17.7h4.5l.7-5.7h-5.2V8c0-1.6.4-2.7 2.7-2.7z"/></symbol><symbol id="icon-facebook" viewBox="0 0 32 32"><path d="M21.3 5.3h3v-5C23.6.1 22 0 20 0c-4.2 0-7.1 2.6-7.1 7.5V12H8.2v5.7H13V32h5.7V17.7h4.5l.7-5.7h-5.2V8c0-1.6.4-2.7 2.7-2.7z"/></symbol><symbol id="icon-foster" viewBox="0 0 65 32"><path d="M10 10c-1.8 0-3.3 1.3-3.3 3 0 1.5 1.5 2.9 3.3 2.9 1.8 0 3.3-1.4 3.3-3s-1.5-3-3.3-3zM34.4 9c0-2.2-1-4.4-2.8-6S27.4.5 25 .5c-2.6 0-5 1-6.8 2.5s-2.8 3.8-2.8 6v12.5s19.1-2 19.1-12.5zM0 25.6c0 1.5.7 3 2 4.1a7.3 7.3 0 0 0 9.4 0c1.2-1 2-2.6 2-4.1v-8.7S0 18.2 0 25.6zM6.7 27c-.4 0-.7 0-1-.2l-.7-.7v-1c0-.3.2-.5.4-.7l1-.5 1 .1c.3.1.5.3.7.6a1.4 1.4 0 0 1-.2 2l-.6.3-.6.1zM20.1 26.3h-1.3v1.3h-.6v-3.3h2v.6h-1.4v.8h1.3v.6zm3.2-.3-.1.9c-.1.3-.3.4-.5.5-.2.2-.5.2-.7.2-.3 0-.5 0-.8-.2l-.4-.5a2 2 0 0 1-.2-.8v-.2c0-.3 0-.6.2-.9a1.3 1.3 0 0 1 1.2-.7c.2 0 .5 0 .7.2l.5.5.1.9v.1zm-.6-.1c0-.4 0-.6-.2-.8s-.3-.3-.5-.3c-.3 0-.4.1-.6.3l-.1.8v.1l.1.8c.1.2.3.3.6.3.2 0 .4-.1.5-.3l.2-.8V26zm2.8.8-.1-.3-.5-.2-.5-.2c-.4-.2-.6-.5-.6-.8l.1-.5.5-.3.6-.1.6.1.4.4.2.5h-.7l-.1-.4h-.8l-.1.3.1.3.5.2c.4 0 .7.2.8.4l.3.6c0 .3-.1.5-.3.7-.2.2-.5.2-.9.2l-.7-.1-.4-.4a1 1 0 0 1-.2-.5h.7c0 .3.2.5.6.5h.4l.1-.4zm3.6-1.8h-1v2.7h-.7v-2.7h-1v-.6h2.7v.6zm2.3 1.3h-1.3v.8h1.6v.6h-2.2v-3.3h2.1v.6h-1.5v.8h1.3v.5zm1.9.2h-.6v1.2H32v-3.3h1.3c.3 0 .6.1.8.3s.4.4.4.7c0 .2 0 .4-.2.6a1 1 0 0 1-.4.3l.7 1.4h-.7l-.6-1.2zm-.6-.5h.6c.1 0 .3 0 .3-.2l.2-.3-.1-.4-.4-.1h-.6v1zm4 .5v1.2h-.6v-3.3h1.3c.2 0 .4 0 .6.2.2 0 .3.2.4.4l.2.5c0 .3-.1.6-.3.8l-1 .2h-.5zm0-.5h.7l.4-.1.1-.4-.1-.4a.5.5 0 0 0-.4-.1h-.6v1zm4.3.3h-1.3v.8h1.5v.6h-2.1v-3.3h2.1v.6h-1.5v.8H41v.5zm3.1-1.3h-1v2.7h-.6v-2.7h-1v-.6H44v.6zm2.4 1.3h-1.3v.8h1.5v.6h-2.2v-3.3h2.2v.6h-1.5v.8h1.3v.5zm1.8.2h-.6v1.2h-.6v-3.3h1.2c.4 0 .7.1.9.3s.3.4.3.7c0 .2 0 .4-.2.6a1 1 0 0 1-.4.3l.7 1.4H49l-.6-1.2zm-.6-.5h.6c.2 0 .3 0 .4-.2l.1-.3-.1-.4-.4-.1h-.6v1zm4 .8s0-.2-.2-.3l-.4-.2-.6-.2c-.4-.2-.5-.5-.5-.8l.1-.5.4-.3.7-.1.6.1.4.4.2.5h-.7c0-.2 0-.3-.2-.4h-.7l-.2.3c0 .1 0 .2.2.3l.5.2c.3 0 .6.2.8.4s.2.4.2.6c0 .3 0 .5-.3.7-.2.2-.5.2-.8.2l-.7-.1-.5-.4a1 1 0 0 1-.1-.5h.6c0 .3.2.5.7.5h.3l.2-.4z"/></symbol><symbol id="icon-group" viewBox="0 0 28 32"><path d="M4 0 9 4.5H0v22h23.1V18l4.8 4.6V0H4.1zm19 17.5L9.3 4.7H23v12.8zm-4.3 5.7h-15V8.5h1v13.7h14v1zM7.2 29.3l-.5 1.2-.6-1.2h-.5l.9 1.6v.9h.4v-1l.8-1.5h-.5zm.7 2.5.2-.6h1l.2.6h.4l-1-2.5h-.3l-1 2.5H8zm.7-2 .3 1h-.7l.4-1zm2.2 1v.3l.1.5.6.2c.2 0 .4 0 .6-.2l.2.2h.4l-.3-.5.2-.7h-.4v.5l-.5-.6.1-.1.3-.3v-.3l-.1-.3a.6.6 0 0 0-.5-.2c-.1 0-.3 0-.4.2l-.2.4v.3l.3.3-.4.3zm1.1.5-.4.2-.3-.1V31l.1-.3.6.5zm-.4-1-.2-.4v-.2h.4l.1.2-.1.2-.2.2zm3.9 1.3.3-.6h-.4l-.2.3-.4.2-.4-.2a1 1 0 0 1-.1-.6v-.3l.1-.5c.1-.2.3-.2.5-.2h.3l.2.4h.4l-.3-.6c-.2-.2-.4-.2-.6-.2a1 1 0 0 0-.9.5l-.1.7v.8c0 .2.3.3.4.4l.5.1c.3 0 .5 0 .7-.2zm2.5-.4.1-.6v-.1l-.1-.6a1 1 0 0 0-1-.6 1 1 0 0 0-.9.6v.7l.1.6.4.5.5.1.5-.1.4-.5zm-.5-1.3.2.6v.1c0 .3 0 .5-.2.6 0 .2-.2.3-.4.3s-.3-.1-.4-.3a1 1 0 0 1-.2-.6v-.1c0-.3 0-.5.2-.6 0-.2.2-.2.4-.2s.3 0 .4.2z"/></symbol><symbol id="icon-instagram-2" viewBox="0 0 32 32"><path d="M32 9.4c-.1-1.7-.4-2.9-.8-3.9s-1-2-1.8-2.8A7.9 7.9 0 0 0 26.5.8c-1-.4-2.1-.6-3.8-.7A109.5 109.5 0 0 0 5.6.8c-1 .4-2 1-2.9 1.9C2 3.5 1.3 4.5 1 5.5.5 6.5.2 7.7.2 9.4a109.5 109.5 0 0 0 .7 17c.4 1.2 1 2.1 1.8 3 .8.7 1.8 1.4 2.9 1.8 1 .4 2.2.6 3.9.7a117.2 117.2 0 0 0 17-.7 8.2 8.2 0 0 0 4.7-4.7c.4-1 .7-2.2.8-3.9V9.4zm-3 13c0 1.6-.2 2.5-.5 3a5.3 5.3 0 0 1-3 3c-.6.3-1.4.6-3 .6a112.7 112.7 0 0 1-15.9-.5 5 5 0 0 1-1.8-1.2 5 5 0 0 1-1.2-1.9c-.2-.5-.5-1.4-.5-3a112.7 112.7 0 0 1 .5-15.8c.3-.7.7-1.3 1.2-1.9a5 5 0 0 1 1.8-1.1c.6-.3 1.5-.5 3-.6a112.7 112.7 0 0 1 15.9.6 5 5 0 0 1 1.8 1.1 5 5 0 0 1 1.2 1.9c.3.5.5 1.4.6 3a112.7 112.7 0 0 1 0 12.9z"/><path d="M16 7.8a8.2 8.2 0 1 0 0 16.4 8.2 8.2 0 0 0 0-16.4zm0 13.5a5.3 5.3 0 1 1 0-10.6 5.3 5.3 0 0 1 0 10.6zM26.5 7.5a2 2 0 1 1-3.8 0 2 2 0 0 1 3.8 0z"/></symbol><symbol id="icon-instagram" viewBox="0 0 32 32"><path d="M32 9.4c-.1-1.7-.4-2.9-.8-3.9s-1-2-1.8-2.8A7.9 7.9 0 0 0 26.5.8c-1-.4-2.1-.6-3.8-.7A109.5 109.5 0 0 0 5.6.8c-1 .4-2 1-2.9 1.9C2 3.5 1.3 4.5 1 5.5.5 6.5.2 7.7.2 9.4a109.5 109.5 0 0 0 .7 17c.4 1.2 1 2.1 1.8 3 .8.7 1.8 1.4 2.9 1.8 1 .4 2.2.6 3.9.7a117.2 117.2 0 0 0 17-.7 8.2 8.2 0 0 0 4.7-4.7c.4-1 .7-2.2.8-3.9V9.4zm-3 13c0 1.6-.2 2.5-.5 3a5.3 5.3 0 0 1-3 3c-.6.3-1.4.6-3 .6a112.7 112.7 0 0 1-15.9-.5 5 5 0 0 1-1.8-1.2 5 5 0 0 1-1.2-1.9c-.2-.5-.5-1.4-.5-3a112.7 112.7 0 0 1 .5-15.8c.3-.7.7-1.3 1.2-1.9a5 5 0 0 1 1.8-1.1c.6-.3 1.5-.5 3-.6a112.7 112.7 0 0 1 15.9.6 5 5 0 0 1 1.8 1.1 5 5 0 0 1 1.2 1.9c.3.5.5 1.4.6 3a112.7 112.7 0 0 1 0 12.9z"/><path d="M16 7.8a8.2 8.2 0 1 0 0 16.4 8.2 8.2 0 0 0 0-16.4zm0 13.5a5.3 5.3 0 1 1 0-10.6 5.3 5.3 0 0 1 0 10.6zM26.5 7.5a2 2 0 1 1-3.8 0 2 2 0 0 1 3.8 0z"/></symbol><symbol id="icon-linkedin-1" viewBox="0 0 32 32"><path d="M32 32V20.3c0-5.8-1.2-10.2-8-10.2a7 7 0 0 0-6.2 3.4h-.1v-2.9h-6.4V32H18V21.4c0-2.8.6-5.5 4-5.5s3.5 3.2 3.5 5.7V32H32zM.5 10.6h6.7V32H.5V10.6zM3.8 0C1.8 0 0 1.7 0 3.8s1.7 4 3.8 4c2.2 0 3.9-1.8 3.9-4C7.7 1.8 6 0 3.8 0z"/></symbol><symbol id="icon-linkedin" viewBox="0 0 32 32"><path d="M32 32V20.3c0-5.8-1.2-10.2-8-10.2a7 7 0 0 0-6.2 3.4h-.1v-2.9h-6.4V32H18V21.4c0-2.8.6-5.5 4-5.5s3.5 3.2 3.5 5.7V32H32zM.5 10.6h6.7V32H.5V10.6zM3.8 0C1.8 0 0 1.7 0 3.8s1.7 4 3.8 4c2.2 0 3.9-1.8 3.9-4C7.7 1.8 6 0 3.8 0z"/></symbol><symbol id="icon-mail" viewBox="0 0 43 32"><path d="M38.7 0H4a4 4 0 0 0-4 4v24a4 4 0 0 0 4 4h34.7a4 4 0 0 0 4-4V4a4 4 0 0 0-4-4zm0 2.7h.5L21.3 18.3 3.5 2.8l.5-.1h34.7zm0 26.6H4c-.7 0-1.3-.6-1.3-1.3V5.6L20.5 21c.2.2.5.3.8.3s.7 0 1-.3L40 5.6V28c0 .7-.6 1.3-1.3 1.3z"/></symbol><symbol id="icon-Object" viewBox="0 0 34 32"><path d="M5.6 31.3h.1l.2.2-.5.3-.7.1h-.6l-.4-.4-.4-.4a1.5 1.5 0 0 1 0-1.1l.4-.5.5-.3a2 2 0 0 1 1.2 0c.2 0 .3.2.5.3l-.2.1H5.3a1.3 1.3 0 0 0-.6-.2l-.4.1a1 1 0 0 0-.6.6l-.1.4v.5l.3.3.3.2H5a1 1 0 0 0 .6-.2zM10.4 30.5v.6l-.4.4-.5.3a2 2 0 0 1-1.2 0c-.2 0-.4-.2-.5-.3-.2-.1-.3-.3-.3-.4-.2-.4-.2-.8 0-1.2l.3-.4.5-.3a2 2 0 0 1 1.2 0l.5.3a1.3 1.3 0 0 1 .4 1zm-.4 0v-.4a1 1 0 0 0-.6-.6h-1a1 1 0 0 0-.3.2l-.2.4v.9a1 1 0 0 0 .5.5h1l.3-.2.2-.3.1-.5zM13.7 31h.1v-.1l1.1-1.7h.5v2.7H15v-2.2l-1 1.7h-.4l-1.1-1.7V32H12v-2.7h.4l1.2 1.7zM17.7 30.9v1h-.4v-2.7h1.4l.4.2.2.2v.4a.8.8 0 0 1-.2.6 1 1 0 0 1-.4.2h-1zm0-.3h.8l.3-.2.1-.2v-.4l-.1-.2a.9.9 0 0 0-.6-.2h-.5v1.2zM23.3 31.9h-.4v-.1l-.4-.7h-1.4l-.3.7a.2.2 0 0 1-.1 0h-.3l1.2-2.6h.4l1.3 2.7zm-2-1h1.1l-.5-1.1v-.3l-.1.1v.2l-.6 1zM25 29.2h.2l1.8 2V29h.3V32H27l-1.8-2.1V32h-.4v-2.7h.2zM30.4 30.8v1H30v-1l-1.2-1.6h.5l.8 1.1v.1l.1.1.1-.2.7-1v-.1H31.7l-1.2 1.6zM13.5 24.6h.6c2.8-1 5.1-2.8 6.8-5.1s2.5-4.9 2.4-7.5l-3-2.7c.5 2.8.2 5.7-1 8.4s-3.2 5.1-5.8 6.9z"/><path d="M12.4 24.5c3-1.8 5-4.2 6.3-7s1.4-6 .5-8.9l-4.4-3.8a16.4 16.4 0 0 1-2.4 19.7zM27.3 15.1c-.7 3-2.5 5.6-5.1 7.5l-2.5 1.6c2.1-.6 4-1.5 5.7-2.8s3-3 3.7-4.7L27.3 15z"/><path d="m26.6 14.7-2.5-2.2c0 2.5-.9 5-2.4 7s-3.7 4-6.2 5.2l1.7-.1c2.4-.9 4.5-2.2 6.1-4s2.8-3.7 3.3-6zM12.8 3.2 9.8.5C7 1.5 4.6 3 3 5.1S.5 9.7.5 12.1c0 2.9 1.1 5.6 3 7.8s4.8 3.7 8 4.4c2.7-3 4.4-6.6 4.6-10.4s-1-7.5-3.3-10.7zM33.6 14.3c0-3.3-1.5-6.5-4.2-8.8a15.8 15.8 0 0 0-15.3-2.9l18.6 16.1c.6-1.4 1-2.9 1-4.4z"/></symbol><symbol id="icon-phone" viewBox="0 0 20 32"><path d="M17 0H3a3 3 0 0 0-3 3v26a3 3 0 0 0 3 3h14a3 3 0 0 0 3-3V3a3 3 0 0 0-3-3zM3 2h14c.6 0 1 .4 1 1v21H2V3c0-.6.4-1 1-1zm14 28H3a1 1 0 0 1-1-1v-3h16v3c0 .6-.4 1-1 1z"/></symbol><symbol id="icon-tag" viewBox="0 0 67 32"><path d="M33.7 15.2a2 2 0 0 1-.4-1.4v-2c0-.7.1-1.1.4-1.5s.8-.5 1.5-.5c.6 0 1.1.2 1.4.5.3.3.4.7.4 1.2v.5h-1.2v-1c0-.1 0-.2-.2-.3a.7.7 0 0 0-.4-.1l-.4.1-.2.3v3.7l.3.2h.7l.2-.4v-1H37v.5c0 .4-.1.9-.4 1.3-.3.3-.7.4-1.4.4s-1.2-.1-1.5-.5zM38.6 15.2c-.3-.3-.5-.7-.5-1.4v-2.1c0-.6.2-1 .5-1.4s.8-.5 1.5-.5c.6 0 1.1.2 1.4.5.3.3.5.8.5 1.4v2.1c0 .7-.2 1.1-.5 1.4s-.8.5-1.4.5c-.7 0-1.2-.1-1.5-.5zm2-.5c.1-.2.2-.4.1-.6V10.8l-.3-.1h-.6l-.3.1-.1.6v2.7l.1.6.3.2h.6l.2-.2zM43.4 9.9h1.2l1 4 1-4h1.2v5.7H47l-.1-4-1 4h-.7l-1-4v4h-1l.2-5.7zM49.3 9.9h2c1 0 1.6.5 1.6 1.6 0 1-.5 1.6-1.7 1.6h-.7v2.5h-1.2V10zm1.7 2.5a1 1 0 0 0 .6-.2c.2-.2.2-.4.2-.7V11l-.1-.2h-.2l-.5-.2h-.5v1.8h.5zM54.7 9.9H56l1.3 5.7h-1.1l-.3-1.3h-1.1l-.3 1.3h-1.1l1.3-5.7zm1.1 3.8-.5-2.5-.4 2.5h.9zM58.4 9.9h.8l1.7 3.3V9.9h1v5.7H61l-1.7-3.4v3.4h-1V10zM64.2 13.5 63 9.9H64l.8 2.3.8-2.3h1.1l-1.3 3.6v2.1h-1.2v-2.1zM35.6 18.2v.3h-1v2.3h-.4v-2.3h-1v-.3h2.4zM38.7 20.8h-.4v-.1l-.4-.6h-1.3l-.3.6-.2.1h-.3l1.2-2.6h.5l1.2 2.6zm-2-1h1.1l-.5-1v-.3l-.1.1v.1l-.5 1.1zM40.8 20.5h.2a1.4 1.4 0 0 0 .4 0l.1-.1v-.6H41v-.3h.9v1a1.8 1.8 0 0 1-.8.3h-1l-.5-.4-.3-.4-.1-.5.1-.6.3-.4.5-.3a2 2 0 0 1 1 0 1.7 1.7 0 0 1 .5.1l.2.2v.1h-.5a1.5 1.5 0 0 0-.6-.1h-.4a1 1 0 0 0-.6.5v1l.2.3a1 1 0 0 0 .9.2zM44.6 20.5H46v.3h-1.7v-2.6h.4v2.3zM47.3 20.8h-.4v-2.6h.4v2.6zM48.8 18.2h.1l1.8 2V18h.3v2.7H50.7l-1.8-2v2h-.3v-2.6h.2zM54 18.2v.2h-1.4v1h1.2v.2h-1.2v.9h1.5v.3h-2v-2.6h2zM10.8 1.9 29 6.4V22l-18.3-4.5V2zM9.6.5v18l20.7 5V5.6L9.6.6z"/><path d="M20.7 31.8 0 26.7V8.8L20.7 14v17.9z"/><path d="M10 1.7 28 6l-7.6 6.7L2.2 8.3 10 1.7zM9.5.5 0 8.8 20.7 14l9.6-8.3L9.6.6zM21.9 30.8l8.4-7.3-8.4-2v9.3z"/></symbol><symbol id="icon-twitter-1" viewBox="0 0 32 32"><path d="M32 6c-1.2.6-2.5 1-3.8 1.1 1.4-.8 2.4-2 3-3.6-1.4.7-2.8 1.3-4.3 1.6a6.6 6.6 0 0 0-11.2 6A18.6 18.6 0 0 1 2.2 4.2a6.6 6.6 0 0 0 2 8.8c-1 0-2-.4-3-.8 0 3.2 2.4 5.9 5.3 6.5a6.5 6.5 0 0 1-3 0 6.6 6.6 0 0 0 6.2 4.6A13.2 13.2 0 0 1 0 26.1 18.5 18.5 0 0 0 28.7 9.5c1.3-1 2.4-2 3.3-3.4z"/></symbol><symbol id="icon-twitter" viewBox="0 0 32 32"><path d="M32 6c-1.2.6-2.5 1-3.8 1.1 1.4-.8 2.4-2 3-3.6-1.4.7-2.8 1.3-4.3 1.6a6.6 6.6 0 0 0-11.2 6A18.6 18.6 0 0 1 2.2 4.2a6.6 6.6 0 0 0 2 8.8c-1 0-2-.4-3-.8 0 3.2 2.4 5.9 5.3 6.5a6.5 6.5 0 0 1-3 0 6.6 6.6 0 0 0 6.2 4.6A13.2 13.2 0 0 1 0 26.1 18.5 18.5 0 0 0 28.7 9.5c1.3-1 2.4-2 3.3-3.4z"/></symbol><symbol id="icon-Union" viewBox="0 0 37 32"><path d="M15.6 2.7h-1.1a21.4 21.4 0 0 0-1.2 0c-3.3.2-6.6 1-9.6 2.4l-.4.2v20.3l1-.3a35.4 35.4 0 0 1 10-1.8v2.7h-1.1A29.5 29.5 0 0 0 .7 29.7v-26A27.2 27.2 0 0 1 14.5 0h.4a27.9 27.9 0 0 1 4.7.6v2.6l-3.2-.5h-.8zm4.7 2.7H22A28.8 28.8 0 0 0 36 2v25.5a27.3 27.3 0 0 1-19 3.1V5a20.9 20.9 0 0 0 3.4.5zm13 .2-1 .3-2.6.7a31.3 31.3 0 0 1-9.3 1h-.8v20.8h2.5A24.6 24.6 0 0 0 32.8 26l.4-.2V5.6z"/></symbol><symbol id="icon-vector" viewBox="0 0 30 32"><path d="m29.9 22.1-8.5-8.5 1-4.6.7.1a2.2 2.2 0 1 0-2-1.4l-5 .6-8-8.1a.5.5 0 0 0-.4-.2c-.2 0-.3 0-.4.2L5.8 1.7c-.2.2-.2.5 0 .7l.8.8A15 15 0 0 0 9.3 21v6.7H2.7a2.7 2.7 0 0 0-2.6 2.7v1c0 .4.2.6.5.6h24.5c.3 0 .6-.2.6-.5v-1.1c0-1.5-1.2-2.7-2.7-2.7h-6.4V25a15 15 0 0 0 10-1.5l.9.9.4.1.3-.1 1.6-1.5c.2-.3.2-.6 0-.8zM22.4 6.2a1 1 0 1 1 .7 1.9 1 1 0 0 1-.7-1.9zM21 9.7l-.6 3-1.2-1.2 1.8-1.8zm-.6-.9-2 2-1.4-1.5 3.4-.5zm2.6 20c.9 0 1.6.7 1.6 1.6v.5H1.2v-.5c0-.9.7-1.6 1.6-1.6h20.3zm-7.5-2.1v1h-5.3v-1h5.3zm-5.3-1.1v-4c0-1.3 1.2-2.4 2.7-2.4s2.6 1 2.6 2.3v4.1h-5.3zm6.4-1.7v-2.4c0-1.8-1.7-3.4-3.7-3.4-1.4 0-2.6.7-3.3 1.8-4-4.3-5-10.6-2.3-15.9L26 22.7a13.8 13.8 0 0 1-9.3 1.2zm11.3-.7L7 2l.7-.7 8 8 13 13.2-.7.7z"/></symbol></defs></svg>